<svg width="162" height="60" viewBox="0 0 162 60" fill="none" xmlns="http://www.w3.org/2000/svg">
<g clip-path="url(#clip0_3_5063)">
<path d="M6.96484 41.9062C5.92318 43.2995 4.85547 43.9961 3.76172 43.9961C2.95443 43.9961 2.43359 43.8854 2.19922 43.6641C1.88672 43.3646 1.70443 43.1237 1.65234 42.9414C2.57682 42.0951 3.21484 41.2031 3.56641 40.2656C3.93099 39.3151 4.11328 38.2148 4.11328 36.9648C4.11328 35.7148 4.0612 34.7839 3.95703 34.1719C3.86589 33.5599 3.72266 33.0716 3.52734 32.707C3.34505 32.3424 3.18229 32.069 3.03906 31.8867C2.90885 31.6914 2.73307 31.5156 2.51172 31.3594C2.30339 31.1901 2.19271 31.099 2.17969 31.0859C2.17969 31.0469 2.24479 30.9753 2.375 30.8711C2.50521 30.7539 2.66797 30.5846 2.86328 30.3633C3.05859 30.1289 3.2474 29.8359 3.42969 29.4844C3.88542 28.625 4.11328 27.3294 4.11328 25.5977C4.11328 23.8659 3.91797 22.5247 3.52734 21.5742C3.13672 20.6107 2.43359 19.6992 1.41797 18.8398C1.75651 18.1628 2.6224 17.8242 4.01562 17.8242C5.10938 17.8242 6.22917 18.5078 7.375 19.875C7.63542 20.1875 7.89583 20.5586 8.15625 20.9883C9.28906 18.5794 11.1771 17.375 13.8203 17.375C16.4766 17.375 18.3451 18.5078 19.4258 20.7734C20.0768 19.6146 20.9297 18.7617 21.9844 18.2148C23.0391 17.6549 24.0872 17.375 25.1289 17.375C26.1706 17.375 27.0951 17.5117 27.9023 17.7852C28.7096 18.0586 29.4453 18.4883 30.1094 19.0742C31.5547 20.3372 32.2773 22.362 32.2773 25.1484C32.2773 27.974 32.7786 29.862 33.7812 30.8125C33.8984 30.9167 33.957 31.0013 33.957 31.0664C33.957 31.1185 33.8984 31.1901 33.7812 31.2812C33.6641 31.3724 33.5208 31.5221 33.3516 31.7305C33.1953 31.9388 33.0391 32.2122 32.8828 32.5508C32.4792 33.3711 32.2773 34.6276 32.2773 36.3203C32.2773 38.013 32.4531 39.3281 32.8047 40.2656C33.1562 41.2031 33.7943 42.0951 34.7188 42.9414C34.3672 43.6445 33.6315 43.9961 32.5117 43.9961C31.3919 43.9961 30.3568 43.2995 29.4062 41.9062C28.7422 42.7917 27.9349 43.4167 26.9844 43.7812C26.5938 43.9245 26.2682 43.9961 26.0078 43.9961C25.7604 43.9961 25.5846 43.9831 25.4805 43.957C25.3893 43.931 25.3112 43.8984 25.2461 43.8594C25.194 43.8333 25.1354 43.7878 25.0703 43.7227C25.0182 43.6576 24.9792 43.599 24.9531 43.5469C24.9271 43.5078 24.8945 43.4492 24.8555 43.3711C24.8294 43.293 24.8099 43.2344 24.7969 43.1953C24.7969 43.1693 24.7773 43.0846 24.7383 42.9414C25.3503 42.0951 25.7799 41.1771 26.0273 40.1875C26.2747 39.1849 26.3984 38.0521 26.3984 36.7891C26.3984 35.526 26.3529 34.5885 26.2617 33.9766C26.1706 33.3516 26.0599 32.8763 25.9297 32.5508C25.7995 32.2122 25.6693 31.9388 25.5391 31.7305C25.4089 31.5221 25.2982 31.3724 25.207 31.2812C25.1159 31.1771 25.0703 31.112 25.0703 31.0859C25.0703 31.0078 25.1354 30.8906 25.2656 30.7344C25.4089 30.5651 25.5651 30.3503 25.7344 30.0898C26.1771 29.4128 26.3984 27.9219 26.3984 25.6172C26.3984 22.2448 25.5651 20.5586 23.8984 20.5586C22.2448 20.5586 21.2747 22.0234 20.9883 24.9531C20.9883 28.013 21.5026 29.9661 22.5312 30.8125C22.6484 30.9167 22.707 31.0013 22.707 31.0664C22.707 31.1185 22.6484 31.1901 22.5312 31.2812C22.4141 31.3724 22.2708 31.5221 22.1016 31.7305C21.9453 31.9388 21.7891 32.2122 21.6328 32.5508C21.2292 33.3711 21.0273 34.6341 21.0273 36.3398C21.0273 38.0326 21.1966 39.3477 21.5352 40.2852C21.8867 41.2227 22.5312 42.1081 23.4688 42.9414C23.1172 43.6445 22.4141 43.9961 21.3594 43.9961C20.6562 43.9961 20.0898 43.8203 19.6602 43.4688C18.9701 42.9089 18.4622 42.388 18.1367 41.9062C17.0951 43.2995 15.9688 43.9961 14.7578 43.9961C13.9505 43.9961 13.4622 43.6445 13.293 42.9414C14.0482 42.0951 14.5755 41.1771 14.875 40.1875C15.1875 39.1849 15.3438 38.0586 15.3438 36.8086C15.3438 35.5456 15.2852 34.6081 15.168 33.9961C15.0508 33.3711 14.9076 32.8958 14.7383 32.5703C14.569 32.2318 14.3997 31.9583 14.2305 31.75C14.0742 31.5286 13.9375 31.3724 13.8203 31.2812C13.7031 31.1771 13.6445 31.1055 13.6445 31.0664C13.6445 31.0143 13.7031 30.9362 13.8203 30.832C13.9375 30.7279 14.0742 30.5781 14.2305 30.3828C14.3997 30.1875 14.569 29.9206 14.7383 29.582C15.1419 28.7747 15.3438 27.4531 15.3438 25.6172C15.3438 22.2448 14.4779 20.5586 12.7461 20.5586C11.8477 20.5586 11.151 20.9818 10.6562 21.8281C10.1745 22.6745 9.93359 23.8073 9.93359 25.2266C9.93359 26.6458 9.9987 27.7461 10.1289 28.5273C10.2721 29.3086 10.4284 29.8294 10.5977 30.0898C10.7669 30.3503 10.9167 30.5651 11.0469 30.7344C11.1901 30.8906 11.2617 31.0013 11.2617 31.0664C11.2617 31.1185 11.2161 31.1966 11.125 31.3008C11.0339 31.4049 10.9232 31.5677 10.793 31.7891C10.6758 32.0104 10.5521 32.2969 10.4219 32.6484C10.1224 33.4948 9.97266 34.7448 9.97266 36.3984C9.97266 38.0391 10.1224 39.3281 10.4219 40.2656C10.7214 41.2031 11.2552 42.0951 12.0234 42.9414C11.9323 43.2279 11.75 43.4753 11.4766 43.6836C11.2161 43.8919 10.9102 43.9961 10.5586 43.9961C9.24349 43.9961 8.04557 43.2995 6.96484 41.9062ZM44.6602 35.8711C44.6602 39.1654 45.474 40.8125 47.1016 40.8125C48.8333 40.8125 49.6992 39.1003 49.6992 35.6758C49.6992 34.7122 49.6211 33.9049 49.4648 33.2539C49.3086 32.6029 49.1458 32.1732 48.9766 31.9648C48.8073 31.7435 48.6055 31.5482 48.3711 31.3789C48.1497 31.1966 48.026 31.0859 48 31.0469C48 30.9688 48.0846 30.8516 48.2539 30.6953C48.4362 30.526 48.6315 30.3112 48.8398 30.0508C49.0612 29.7773 49.2565 29.2565 49.4258 28.4883C49.6081 27.707 49.6992 26.7435 49.6992 25.5977C49.6992 22.4727 48.8529 20.9102 47.1602 20.9102C45.4805 20.9102 44.6406 22.4727 44.6406 25.5977C44.6406 26.7435 44.7253 27.707 44.8945 28.4883C45.0768 29.2565 45.2721 29.7773 45.4805 30.0508C45.6888 30.3112 45.8776 30.526 46.0469 30.6953C46.2292 30.8516 46.3203 30.9622 46.3203 31.0273C46.3203 31.0794 46.2617 31.1445 46.1445 31.2227C46.0273 31.3008 45.8906 31.431 45.7344 31.6133C45.5781 31.7956 45.4219 32.0365 45.2656 32.3359C44.862 33.0911 44.6602 34.2695 44.6602 35.8711ZM56.1836 32.6289C56.0013 32.9805 55.8581 33.4492 55.7539 34.0352C55.6628 34.6211 55.6172 35.4414 55.6172 36.4961C55.6172 37.5378 55.3763 38.599 54.8945 39.6797C54.4128 40.7474 53.7682 41.6133 52.9609 42.2773C52.1536 42.9414 51.2552 43.4492 50.2656 43.8008C49.276 44.1523 48.2409 44.3281 47.1602 44.3281C46.0794 44.3281 45.0378 44.1523 44.0352 43.8008C43.0456 43.4492 42.1471 42.9414 41.3398 42.2773C40.5456 41.6133 39.9076 40.7474 39.4258 39.6797C38.944 38.599 38.7031 37.5247 38.7031 36.457C38.7031 35.3763 38.625 34.5234 38.4688 33.8984C38.3255 33.2604 38.1432 32.7786 37.9219 32.4531C37.7135 32.1276 37.4987 31.8672 37.2773 31.6719C37.069 31.4635 36.8867 31.3138 36.7305 31.2227C36.5872 31.1315 36.5156 31.0664 36.5156 31.0273C36.5156 30.9883 36.5872 30.9232 36.7305 30.832C36.8867 30.7279 37.069 30.5781 37.2773 30.3828C37.4987 30.1875 37.7135 29.9271 37.9219 29.6016C38.4427 28.8203 38.7031 27.6549 38.7031 26.1055C38.7031 24.556 38.944 23.2344 39.4258 22.1406C39.9076 21.0469 40.5456 20.1615 41.3398 19.4844C42.1471 18.8073 43.0456 18.293 44.0352 17.9414C45.0378 17.5768 46.0794 17.3945 47.1602 17.3945C48.2409 17.3945 49.276 17.5768 50.2656 17.9414C51.2552 18.293 52.1536 18.8073 52.9609 19.4844C53.7682 20.1615 54.4128 21.0469 54.8945 22.1406C55.3763 23.2344 55.6172 24.3346 55.6172 25.4414C55.6172 26.5482 55.6823 27.4336 55.8125 28.0977C55.9557 28.7487 56.1185 29.2435 56.3008 29.582C56.4961 29.9076 56.6849 30.1745 56.8672 30.3828C57.0625 30.5781 57.2253 30.7279 57.3555 30.832C57.4987 30.9232 57.5703 30.9948 57.5703 31.0469C57.5573 31.0599 57.4401 31.151 57.2188 31.3203C57.0104 31.4766 56.8346 31.6458 56.6914 31.8281C56.5482 32.0104 56.3789 32.2773 56.1836 32.6289ZM65.8711 20.7539C67.9674 18.5013 70.0898 17.375 72.2383 17.375C74.3867 17.375 76.125 18.0911 77.4531 19.5234C78.7812 20.9427 79.4453 22.9479 79.4453 25.5391C79.4453 26.75 79.5299 27.7656 79.6992 28.5859C79.8815 29.4062 80.0768 29.9531 80.2852 30.2266C80.4935 30.5 80.6823 30.7279 80.8516 30.9102C81.0339 31.0794 81.125 31.1966 81.125 31.2617C81.125 31.3138 81.0664 31.3854 80.9492 31.4766C80.832 31.5547 80.6888 31.6979 80.5195 31.9062C80.3633 32.1016 80.2005 32.362 80.0312 32.6875C79.6406 33.4818 79.4453 34.7122 79.4453 36.3789C79.4453 38.0326 79.6211 39.3281 79.9727 40.2656C80.3242 41.2031 80.9622 42.0951 81.8867 42.9414C81.5352 43.6445 80.7669 43.9961 79.582 43.9961C78.3971 43.9961 77.2643 43.2995 76.1836 41.9062C75.1419 43.2995 74.1328 43.9961 73.1562 43.9961C72.1927 43.9961 71.6198 43.6445 71.4375 42.9414C72.2057 42.069 72.7526 41.138 73.0781 40.1484C73.4036 39.1458 73.5664 38.026 73.5664 36.7891C73.5664 35.5391 73.5013 34.6016 73.3711 33.9766C73.2409 33.3516 73.0781 32.8763 72.8828 32.5508C72.7005 32.2122 72.5117 31.9388 72.3164 31.7305C72.1341 31.5221 71.9779 31.3724 71.8477 31.2812C71.7174 31.1771 71.6523 31.1055 71.6523 31.0664C71.6523 31.0143 71.75 30.8776 71.9453 30.6562C72.1536 30.4349 72.375 30.168 72.6094 29.8555C72.8438 29.5299 73.0586 28.9831 73.2539 28.2148C73.4622 27.4466 73.5664 26.5547 73.5664 25.5391C73.5664 22.2318 72.7982 20.5781 71.2617 20.5781C70.2852 20.5781 69.4779 21.0208 68.8398 21.9062C68.2018 22.7917 67.8828 24.1198 67.8828 25.8906C67.8828 26.9062 67.9674 27.7786 68.1367 28.5078C68.319 29.237 68.5143 29.7448 68.7227 30.0312C68.944 30.3047 69.1393 30.5326 69.3086 30.7148C69.4909 30.8971 69.582 31.0143 69.582 31.0664C69.582 31.1185 69.5234 31.1966 69.4062 31.3008C69.2891 31.4049 69.1458 31.5742 68.9766 31.8086C68.8203 32.0299 68.6641 32.3099 68.5078 32.6484C68.1172 33.5208 67.9219 34.7773 67.9219 36.418C67.9219 38.0456 68.0977 39.3281 68.4492 40.2656C68.8008 41.2031 69.4388 42.0951 70.3633 42.9414C70.2721 43.2018 70.0443 43.4427 69.6797 43.6641C69.3281 43.8854 68.931 43.9961 68.4883 43.9961C67.1862 43.9961 65.9622 43.2995 64.8164 41.9062C63.7747 43.2995 62.707 43.9961 61.6133 43.9961C61.0924 43.9961 60.6628 43.918 60.3242 43.7617C59.8815 43.5534 59.6081 43.2799 59.5039 42.9414C60.4154 42.0951 61.0534 41.1966 61.418 40.2461C61.7826 39.2956 61.9648 38.2018 61.9648 36.9648C61.9648 35.7148 61.9128 34.7904 61.8086 34.1914C61.7174 33.5794 61.5742 33.0911 61.3789 32.7266C61.1966 32.362 61.0339 32.0885 60.8906 31.9062C60.7604 31.7109 60.5846 31.5286 60.3633 31.3594C60.1419 31.1901 60.0247 31.099 60.0117 31.0859C60.0117 31.0469 60.0768 30.9818 60.207 30.8906C60.3503 30.7865 60.513 30.6302 60.6953 30.4219C60.8906 30.2135 61.0859 29.9401 61.2812 29.6016C61.737 28.7943 61.9648 27.5378 61.9648 25.832C61.9648 24.1263 61.7695 22.7656 61.3789 21.75C60.9883 20.7344 60.2852 19.7643 59.2695 18.8398C59.6081 18.1628 60.5065 17.8242 61.9648 17.8242C63.4362 17.8242 64.7383 18.8008 65.8711 20.7539ZM106.203 40.9102C105.839 42.2253 105.129 43.1432 104.074 43.6641C103.579 43.9115 103.078 44.0872 102.57 44.1914C102.062 44.3086 101.405 44.3672 100.598 44.3672C99.7904 44.3672 98.944 44.1979 98.0586 43.8594C97.5117 43.651 97.0234 43.3776 96.5938 43.0391C96.1771 42.7005 95.793 42.2318 95.4414 41.6328C95.0898 41.0208 94.8424 40.3307 94.6992 39.5625C94.556 38.7812 94.1198 37.9479 93.3906 37.0625C93.1562 36.7891 93.0391 36.6198 93.0391 36.5547C93.0391 36.4896 93.2669 36.1966 93.7227 35.6758C94.1914 35.1419 94.4844 34.6016 94.6016 34.0547C94.9792 32.2969 95.8385 31.0599 97.1797 30.3438C97.7656 30.0182 98.3971 29.7448 99.0742 29.5234C99.7513 29.3021 100.402 29.1003 101.027 28.918C101.665 28.7357 102.245 28.5208 102.766 28.2734C103.286 28.013 103.703 27.6419 104.016 27.1602C104.328 26.6654 104.484 25.9492 104.484 25.0117C104.484 24.0612 104.452 23.1823 104.387 22.375C104.348 21.8802 104.276 21.5026 104.172 21.2422C104.081 20.9818 103.957 20.7279 103.801 20.4805C103.645 20.2331 103.443 20.0638 103.195 19.9727C102.948 19.8685 102.603 19.8164 102.16 19.8164C101.717 19.8164 101.333 20.0052 101.008 20.3828C100.682 20.7604 100.52 21.2357 100.52 21.8086C100.52 22.3815 100.715 23.0781 101.105 23.8984C101.509 24.7057 102.056 25.194 102.746 25.3633C102.395 26.1966 101.809 26.6133 100.988 26.6133C100.181 26.6133 99.4323 26.3464 98.7422 25.8125C98.8073 25.8776 98.6641 26.1966 98.3125 26.7695C98.1562 27.0299 97.9674 27.2904 97.7461 27.5508C97.5247 27.8112 97.2383 28.0326 96.8867 28.2148C96.5352 28.3971 96.1771 28.4883 95.8125 28.4883C95.4479 28.4883 95.1875 28.3906 95.0312 28.1953C95.7083 27.5182 96.0469 26.8802 96.0469 26.2812C96.0469 26.0599 95.9557 25.5911 95.7734 24.875C95.5911 24.1458 95.5 23.6055 95.5 23.2539C95.5 21.6654 96.1055 20.3828 97.3164 19.4062C97.8503 18.9635 98.5924 18.5143 99.543 18.0586C100.493 17.6029 101.587 17.375 102.824 17.375C108.02 17.375 110.617 20.2135 110.617 25.8906C110.617 27.2578 110.878 28.4818 111.398 29.5625C111.646 30.0573 112.193 30.5521 113.039 31.0469C113.039 31.099 112.961 31.1771 112.805 31.2812C112.661 31.3854 112.479 31.5547 112.258 31.7891C112.036 32.0104 111.815 32.2969 111.594 32.6484C111.372 33 111.184 33.5078 111.027 34.1719C110.884 34.8359 110.812 35.8125 110.812 37.1016C110.812 38.3906 110.982 39.5234 111.32 40.5C111.659 41.4635 112.154 42.2904 112.805 42.9805C112.688 43.2018 112.44 43.4167 112.062 43.625C111.88 43.7161 111.62 43.7943 111.281 43.8594C110.956 43.9375 110.572 43.9766 110.129 43.9766C109.699 43.9766 109.263 43.8659 108.82 43.6445C107.714 43.0977 106.841 42.1862 106.203 40.9102ZM100.207 36.8672C100.207 39.7969 100.826 41.2617 102.062 41.2617C102.583 41.2617 102.974 41.1641 103.234 40.9688C103.391 40.8646 103.527 40.7604 103.645 40.6562C103.762 40.5521 103.859 40.3893 103.938 40.168C104.029 39.9466 104.139 39.6667 104.27 39.3281C104.413 38.9896 104.484 37.8893 104.484 36.0273C104.484 36.0273 104.484 34.901 104.484 32.6484C104.484 30.6562 104.491 29.6602 104.504 29.6602C104.165 30.0117 103.625 30.4674 102.883 31.0273C102.141 31.5872 101.548 32.1536 101.105 32.7266C100.507 33.4948 100.207 34.7318 100.207 36.4375V36.8672ZM120.52 41.9062C119.478 43.2995 118.41 43.9961 117.316 43.9961C116.509 43.9961 115.988 43.8854 115.754 43.6641C115.441 43.3646 115.259 43.1237 115.207 42.9414C116.132 42.0951 116.77 41.2031 117.121 40.2656C117.486 39.3151 117.668 38.2148 117.668 36.9648C117.668 35.7148 117.616 34.7839 117.512 34.1719C117.421 33.5599 117.277 33.0716 117.082 32.707C116.9 32.3424 116.737 32.069 116.594 31.8867C116.464 31.6914 116.288 31.5156 116.066 31.3594C115.858 31.1901 115.747 31.099 115.734 31.0859C115.734 31.0469 115.799 30.9753 115.93 30.8711C116.06 30.7539 116.223 30.5846 116.418 30.3633C116.613 30.1289 116.802 29.8359 116.984 29.4844C117.44 28.625 117.668 27.3294 117.668 25.5977C117.668 23.8659 117.473 22.5247 117.082 21.5742C116.691 20.6107 115.988 19.6992 114.973 18.8398C115.311 18.1628 116.177 17.8242 117.57 17.8242C118.664 17.8242 119.784 18.5078 120.93 19.875C121.19 20.1875 121.451 20.5586 121.711 20.9883C122.844 18.5794 124.732 17.375 127.375 17.375C130.031 17.375 131.9 18.5078 132.98 20.7734C133.632 19.6146 134.484 18.7617 135.539 18.2148C136.594 17.6549 137.642 17.375 138.684 17.375C139.725 17.375 140.65 17.5117 141.457 17.7852C142.264 18.0586 143 18.4883 143.664 19.0742C145.109 20.3372 145.832 22.362 145.832 25.1484C145.832 27.974 146.333 29.862 147.336 30.8125C147.453 30.9167 147.512 31.0013 147.512 31.0664C147.512 31.1185 147.453 31.1901 147.336 31.2812C147.219 31.3724 147.076 31.5221 146.906 31.7305C146.75 31.9388 146.594 32.2122 146.438 32.5508C146.034 33.3711 145.832 34.6276 145.832 36.3203C145.832 38.013 146.008 39.3281 146.359 40.2656C146.711 41.2031 147.349 42.0951 148.273 42.9414C147.922 43.6445 147.186 43.9961 146.066 43.9961C144.947 43.9961 143.911 43.2995 142.961 41.9062C142.297 42.7917 141.49 43.4167 140.539 43.7812C140.148 43.9245 139.823 43.9961 139.562 43.9961C139.315 43.9961 139.139 43.9831 139.035 43.957C138.944 43.931 138.866 43.8984 138.801 43.8594C138.749 43.8333 138.69 43.7878 138.625 43.7227C138.573 43.6576 138.534 43.599 138.508 43.5469C138.482 43.5078 138.449 43.4492 138.41 43.3711C138.384 43.293 138.365 43.2344 138.352 43.1953C138.352 43.1693 138.332 43.0846 138.293 42.9414C138.905 42.0951 139.335 41.1771 139.582 40.1875C139.829 39.1849 139.953 38.0521 139.953 36.7891C139.953 35.526 139.908 34.5885 139.816 33.9766C139.725 33.3516 139.615 32.8763 139.484 32.5508C139.354 32.2122 139.224 31.9388 139.094 31.7305C138.964 31.5221 138.853 31.3724 138.762 31.2812C138.671 31.1771 138.625 31.112 138.625 31.0859C138.625 31.0078 138.69 30.8906 138.82 30.7344C138.964 30.5651 139.12 30.3503 139.289 30.0898C139.732 29.4128 139.953 27.9219 139.953 25.6172C139.953 22.2448 139.12 20.5586 137.453 20.5586C135.799 20.5586 134.829 22.0234 134.543 24.9531C134.543 28.013 135.057 29.9661 136.086 30.8125C136.203 30.9167 136.262 31.0013 136.262 31.0664C136.262 31.1185 136.203 31.1901 136.086 31.2812C135.969 31.3724 135.826 31.5221 135.656 31.7305C135.5 31.9388 135.344 32.2122 135.188 32.5508C134.784 33.3711 134.582 34.6341 134.582 36.3398C134.582 38.0326 134.751 39.3477 135.09 40.2852C135.441 41.2227 136.086 42.1081 137.023 42.9414C136.672 43.6445 135.969 43.9961 134.914 43.9961C134.211 43.9961 133.645 43.8203 133.215 43.4688C132.525 42.9089 132.017 42.388 131.691 41.9062C130.65 43.2995 129.523 43.9961 128.312 43.9961C127.505 43.9961 127.017 43.6445 126.848 42.9414C127.603 42.0951 128.13 41.1771 128.43 40.1875C128.742 39.1849 128.898 38.0586 128.898 36.8086C128.898 35.5456 128.84 34.6081 128.723 33.9961C128.605 33.3711 128.462 32.8958 128.293 32.5703C128.124 32.2318 127.954 31.9583 127.785 31.75C127.629 31.5286 127.492 31.3724 127.375 31.2812C127.258 31.1771 127.199 31.1055 127.199 31.0664C127.199 31.0143 127.258 30.9362 127.375 30.832C127.492 30.7279 127.629 30.5781 127.785 30.3828C127.954 30.1875 128.124 29.9206 128.293 29.582C128.697 28.7747 128.898 27.4531 128.898 25.6172C128.898 22.2448 128.033 20.5586 126.301 20.5586C125.402 20.5586 124.706 20.9818 124.211 21.8281C123.729 22.6745 123.488 23.8073 123.488 25.2266C123.488 26.6458 123.553 27.7461 123.684 28.5273C123.827 29.3086 123.983 29.8294 124.152 30.0898C124.322 30.3503 124.471 30.5651 124.602 30.7344C124.745 30.8906 124.816 31.0013 124.816 31.0664C124.816 31.1185 124.771 31.1966 124.68 31.3008C124.589 31.4049 124.478 31.5677 124.348 31.7891C124.23 32.0104 124.107 32.2969 123.977 32.6484C123.677 33.4948 123.527 34.7448 123.527 36.3984C123.527 38.0391 123.677 39.3281 123.977 40.2656C124.276 41.2031 124.81 42.0951 125.578 42.9414C125.487 43.2279 125.305 43.4753 125.031 43.6836C124.771 43.8919 124.465 43.9961 124.113 43.9961C122.798 43.9961 121.6 43.2995 120.52 41.9062ZM152.355 17.4141C153.488 17.4141 154.465 17.9154 155.285 18.918C155.689 18.319 156.333 17.8698 157.219 17.5703C157.544 17.4661 157.876 17.4141 158.215 17.4141C158.553 17.4141 158.846 17.4531 159.094 17.5312C159.341 17.5964 159.523 17.681 159.641 17.7852C159.901 17.9935 160.051 18.2214 160.09 18.4688C159.27 19.263 158.703 20.0964 158.391 20.9688C158.091 21.8411 157.941 22.987 157.941 24.4062C157.941 25.8255 158.007 26.9453 158.137 27.7656C158.267 28.5729 158.43 29.1589 158.625 29.5234C158.82 29.875 159.009 30.1419 159.191 30.3242C159.387 30.5065 159.549 30.6497 159.68 30.7539C159.81 30.8451 159.875 30.9427 159.875 31.0469C159.875 31.138 159.81 31.2357 159.68 31.3398C159.549 31.431 159.387 31.5807 159.191 31.7891C159.009 31.9974 158.82 32.2773 158.625 32.6289C158.169 33.4492 157.941 34.7448 157.941 36.5156C157.941 38.2865 158.098 39.6211 158.41 40.5195C158.723 41.4049 159.283 42.2122 160.09 42.9414C160.09 43.3581 159.758 43.6706 159.094 43.8789C158.846 43.957 158.501 43.9961 158.059 43.9961C157.616 43.9961 157.147 43.8659 156.652 43.6055C156.171 43.3581 155.826 43.1107 155.617 42.8633L155.285 42.4922C154.882 43.0911 154.237 43.5339 153.352 43.8203C153.026 43.9375 152.648 43.9961 152.219 43.9961C151.789 43.9961 151.418 43.9049 151.105 43.7227C150.793 43.5534 150.611 43.3776 150.559 43.1953L150.48 42.9414C151.288 42.2122 151.848 41.4049 152.16 40.5195C152.473 39.6211 152.629 38.5339 152.629 37.2578C152.629 35.9818 152.564 34.9792 152.434 34.25C152.303 33.5208 152.141 32.9805 151.945 32.6289C151.763 32.2773 151.574 31.9974 151.379 31.7891C151.184 31.5807 151.021 31.431 150.891 31.3398C150.76 31.2357 150.695 31.138 150.695 31.0469C150.695 30.9427 150.76 30.8451 150.891 30.7539C151.021 30.6497 151.184 30.5065 151.379 30.3242C151.574 30.1419 151.763 29.875 151.945 29.5234C152.401 28.6641 152.629 27.2448 152.629 25.2656C152.629 23.2865 152.473 21.8607 152.16 20.9883C151.861 20.1159 151.301 19.276 150.48 18.4688C150.48 18.0521 150.812 17.7396 151.477 17.5312C151.724 17.4531 152.017 17.4141 152.355 17.4141ZM155.246 8.74219L159.348 12.3359L155.227 16.0469L154.191 15.1484C153.501 14.5625 152.818 13.9701 152.141 13.3711L151.105 12.4727C151.105 12.3945 151.763 11.7565 153.078 10.5586C154.406 9.34766 155.129 8.74219 155.246 8.74219Z" fill="#B77EE3"/>
</g>
<defs>
<clipPath id="clip0_3_5063">
<rect width="161" height="60" fill="white" transform="translate(0.5)"/>
</clipPath>
</defs>
</svg>
