<svg width="255" height="58" viewBox="0 0 255 58" fill="none" xmlns="http://www.w3.org/2000/svg">
<path d="M9.34375 53.25C7.67708 55.4792 5.96875 56.5938 4.21875 56.5938C2.92708 56.5938 2.09375 56.4167 1.71875 56.0625C1.21875 55.5833 0.927083 55.1979 0.84375 54.9062C2.32292 53.5521 3.34375 52.125 3.90625 50.625C4.48958 49.1042 4.78125 47.3438 4.78125 45.3438C4.78125 43.3438 4.69792 41.8542 4.53125 40.875C4.38542 39.8958 4.15625 39.1146 3.84375 38.5312C3.55208 37.9479 3.29167 37.5104 3.0625 37.2188C2.85417 36.9062 2.57292 36.625 2.21875 36.375C1.88542 36.1042 1.70833 35.9583 1.6875 35.9375C1.6875 35.875 1.79167 35.7604 2 35.5938C2.20833 35.4062 2.46875 35.1354 2.78125 34.7812C3.09375 34.4062 3.39583 33.9375 3.6875 33.375C4.41667 32 4.78125 29.9271 4.78125 27.1562C4.78125 24.3854 4.46875 22.2396 3.84375 20.7188C3.21875 19.1771 2.09375 17.7188 0.46875 16.3438C1.01042 15.2604 2.39583 14.7188 4.625 14.7188C6.375 14.7188 8.16667 15.8125 10 18C10.4167 18.5 10.8333 19.0938 11.25 19.7812C13.0625 15.9271 16.0833 14 20.3125 14C24.5625 14 27.5521 15.8125 29.2812 19.4375C30.3229 17.5833 31.6875 16.2188 33.375 15.3438C35.0625 14.4479 36.7396 14 38.4062 14C40.0729 14 41.5521 14.2188 42.8438 14.6562C44.1354 15.0938 45.3125 15.7812 46.375 16.7188C48.6875 18.7396 49.8438 21.9792 49.8438 26.4375C49.8438 30.9583 50.6458 33.9792 52.25 35.5C52.4375 35.6667 52.5312 35.8021 52.5312 35.9062C52.5312 35.9896 52.4375 36.1042 52.25 36.25C52.0625 36.3958 51.8333 36.6354 51.5625 36.9688C51.3125 37.3021 51.0625 37.7396 50.8125 38.2812C50.1667 39.5938 49.8438 41.6042 49.8438 44.3125C49.8438 47.0208 50.125 49.125 50.6875 50.625C51.25 52.125 52.2708 53.5521 53.75 54.9062C53.1875 56.0312 52.0104 56.5938 50.2188 56.5938C48.4271 56.5938 46.7708 55.4792 45.25 53.25C44.1875 54.6667 42.8958 55.6667 41.375 56.25C40.75 56.4792 40.2292 56.5938 39.8125 56.5938C39.4167 56.5938 39.1354 56.5729 38.9688 56.5312C38.8229 56.4896 38.6979 56.4375 38.5938 56.375C38.5104 56.3333 38.4167 56.2604 38.3125 56.1562C38.2292 56.0521 38.1667 55.9583 38.125 55.875C38.0833 55.8125 38.0312 55.7188 37.9688 55.5938C37.9271 55.4688 37.8958 55.375 37.875 55.3125C37.875 55.2708 37.8438 55.1354 37.7812 54.9062C38.7604 53.5521 39.4479 52.0833 39.8438 50.5C40.2396 48.8958 40.4375 47.0833 40.4375 45.0625C40.4375 43.0417 40.3646 41.5417 40.2188 40.5625C40.0729 39.5625 39.8958 38.8021 39.6875 38.2812C39.4792 37.7396 39.2708 37.3021 39.0625 36.9688C38.8542 36.6354 38.6771 36.3958 38.5312 36.25C38.3854 36.0833 38.3125 35.9792 38.3125 35.9375C38.3125 35.8125 38.4167 35.625 38.625 35.375C38.8542 35.1042 39.1042 34.7604 39.375 34.3438C40.0833 33.2604 40.4375 30.875 40.4375 27.1875C40.4375 21.7917 39.1042 19.0938 36.4375 19.0938C33.7917 19.0938 32.2396 21.4375 31.7812 26.125C31.7812 31.0208 32.6042 34.1458 34.25 35.5C34.4375 35.6667 34.5312 35.8021 34.5312 35.9062C34.5312 35.9896 34.4375 36.1042 34.25 36.25C34.0625 36.3958 33.8333 36.6354 33.5625 36.9688C33.3125 37.3021 33.0625 37.7396 32.8125 38.2812C32.1667 39.5938 31.8438 41.6146 31.8438 44.3438C31.8438 47.0521 32.1146 49.1562 32.6562 50.6562C33.2188 52.1562 34.25 53.5729 35.75 54.9062C35.1875 56.0312 34.0625 56.5938 32.375 56.5938C31.25 56.5938 30.3438 56.3125 29.6562 55.75C28.5521 54.8542 27.7396 54.0208 27.2188 53.25C25.5521 55.4792 23.75 56.5938 21.8125 56.5938C20.5208 56.5938 19.7396 56.0312 19.4688 54.9062C20.6771 53.5521 21.5208 52.0833 22 50.5C22.5 48.8958 22.75 47.0938 22.75 45.0938C22.75 43.0729 22.6562 41.5729 22.4688 40.5938C22.2812 39.5938 22.0521 38.8333 21.7812 38.3125C21.5104 37.7708 21.2396 37.3333 20.9688 37C20.7188 36.6458 20.5 36.3958 20.3125 36.25C20.125 36.0833 20.0312 35.9688 20.0312 35.9062C20.0312 35.8229 20.125 35.6979 20.3125 35.5312C20.5 35.3646 20.7188 35.125 20.9688 34.8125C21.2396 34.5 21.5104 34.0729 21.7812 33.5312C22.4271 32.2396 22.75 30.125 22.75 27.1875C22.75 21.7917 21.3646 19.0938 18.5938 19.0938C17.1562 19.0938 16.0417 19.7708 15.25 21.125C14.4792 22.4792 14.0938 24.2917 14.0938 26.5625C14.0938 28.8333 14.1979 30.5938 14.4062 31.8438C14.6354 33.0938 14.8854 33.9271 15.1562 34.3438C15.4271 34.7604 15.6667 35.1042 15.875 35.375C16.1042 35.625 16.2188 35.8021 16.2188 35.9062C16.2188 35.9896 16.1458 36.1146 16 36.2812C15.8542 36.4479 15.6771 36.7083 15.4688 37.0625C15.2812 37.4167 15.0833 37.875 14.875 38.4375C14.3958 39.7917 14.1562 41.7917 14.1562 44.4375C14.1562 47.0625 14.3958 49.125 14.875 50.625C15.3542 52.125 16.2083 53.5521 17.4375 54.9062C17.2917 55.3646 17 55.7604 16.5625 56.0938C16.1458 56.4271 15.6562 56.5938 15.0938 56.5938C12.9896 56.5938 11.0729 55.4792 9.34375 53.25ZM69.6562 43.5938C69.6562 48.8646 70.9583 51.5 73.5625 51.5C76.3333 51.5 77.7188 48.7604 77.7188 43.2812C77.7188 41.7396 77.5938 40.4479 77.3438 39.4062C77.0938 38.3646 76.8333 37.6771 76.5625 37.3438C76.2917 36.9896 75.9688 36.6771 75.5938 36.4062C75.2396 36.1146 75.0417 35.9375 75 35.875C75 35.75 75.1354 35.5625 75.4062 35.3125C75.6979 35.0417 76.0104 34.6979 76.3438 34.2812C76.6979 33.8438 77.0104 33.0104 77.2812 31.7812C77.5729 30.5312 77.7188 28.9896 77.7188 27.1562C77.7188 22.1562 76.3646 19.6562 73.6562 19.6562C70.9688 19.6562 69.625 22.1562 69.625 27.1562C69.625 28.9896 69.7604 30.5312 70.0312 31.7812C70.3229 33.0104 70.6354 33.8438 70.9688 34.2812C71.3021 34.6979 71.6042 35.0417 71.875 35.3125C72.1667 35.5625 72.3125 35.7396 72.3125 35.8438C72.3125 35.9271 72.2188 36.0312 72.0312 36.1562C71.8438 36.2812 71.625 36.4896 71.375 36.7812C71.125 37.0729 70.875 37.4583 70.625 37.9375C69.9792 39.1458 69.6562 41.0312 69.6562 43.5938ZM88.0938 38.4062C87.8021 38.9688 87.5729 39.7188 87.4062 40.6562C87.2604 41.5938 87.1875 42.9062 87.1875 44.5938C87.1875 46.2604 86.8021 47.9583 86.0312 49.6875C85.2604 51.3958 84.2292 52.7812 82.9375 53.8438C81.6458 54.9062 80.2083 55.7188 78.625 56.2812C77.0417 56.8438 75.3854 57.125 73.6562 57.125C71.9271 57.125 70.2604 56.8438 68.6562 56.2812C67.0729 55.7188 65.6354 54.9062 64.3438 53.8438C63.0729 52.7812 62.0521 51.3958 61.2812 49.6875C60.5104 47.9583 60.125 46.2396 60.125 44.5312C60.125 42.8021 60 41.4375 59.75 40.4375C59.5208 39.4167 59.2292 38.6458 58.875 38.125C58.5417 37.6042 58.1979 37.1875 57.8438 36.875C57.5104 36.5417 57.2188 36.3021 56.9688 36.1562C56.7396 36.0104 56.625 35.9062 56.625 35.8438C56.625 35.7812 56.7396 35.6771 56.9688 35.5312C57.2188 35.3646 57.5104 35.125 57.8438 34.8125C58.1979 34.5 58.5417 34.0833 58.875 33.5625C59.7083 32.3125 60.125 30.4479 60.125 27.9688C60.125 25.4896 60.5104 23.375 61.2812 21.625C62.0521 19.875 63.0729 18.4583 64.3438 17.375C65.6354 16.2917 67.0729 15.4688 68.6562 14.9062C70.2604 14.3229 71.9271 14.0312 73.6562 14.0312C75.3854 14.0312 77.0417 14.3229 78.625 14.9062C80.2083 15.4688 81.6458 16.2917 82.9375 17.375C84.2292 18.4583 85.2604 19.875 86.0312 21.625C86.8021 23.375 87.1875 25.1354 87.1875 26.9062C87.1875 28.6771 87.2917 30.0938 87.5 31.1562C87.7292 32.1979 87.9896 32.9896 88.2812 33.5312C88.5938 34.0521 88.8958 34.4792 89.1875 34.8125C89.5 35.125 89.7604 35.3646 89.9688 35.5312C90.1979 35.6771 90.3125 35.7917 90.3125 35.875C90.2917 35.8958 90.1042 36.0417 89.75 36.3125C89.4167 36.5625 89.1354 36.8333 88.9062 37.125C88.6771 37.4167 88.4062 37.8438 88.0938 38.4062ZM103.594 19.4062C106.948 15.8021 110.344 14 113.781 14C117.219 14 120 15.1458 122.125 17.4375C124.25 19.7083 125.312 22.9167 125.312 27.0625C125.312 29 125.448 30.625 125.719 31.9375C126.01 33.25 126.323 34.125 126.656 34.5625C126.99 35 127.292 35.3646 127.562 35.6562C127.854 35.9271 128 36.1146 128 36.2188C128 36.3021 127.906 36.4167 127.719 36.5625C127.531 36.6875 127.302 36.9167 127.031 37.25C126.781 37.5625 126.521 37.9792 126.25 38.5C125.625 39.7708 125.312 41.7396 125.312 44.4062C125.312 47.0521 125.594 49.125 126.156 50.625C126.719 52.125 127.74 53.5521 129.219 54.9062C128.656 56.0312 127.427 56.5938 125.531 56.5938C123.635 56.5938 121.823 55.4792 120.094 53.25C118.427 55.4792 116.812 56.5938 115.25 56.5938C113.708 56.5938 112.792 56.0312 112.5 54.9062C113.729 53.5104 114.604 52.0208 115.125 50.4375C115.646 48.8333 115.906 47.0417 115.906 45.0625C115.906 43.0625 115.802 41.5625 115.594 40.5625C115.385 39.5625 115.125 38.8021 114.812 38.2812C114.521 37.7396 114.219 37.3021 113.906 36.9688C113.615 36.6354 113.365 36.3958 113.156 36.25C112.948 36.0833 112.844 35.9688 112.844 35.9062C112.844 35.8229 113 35.6042 113.312 35.25C113.646 34.8958 114 34.4688 114.375 33.9688C114.75 33.4479 115.094 32.5729 115.406 31.3438C115.74 30.1146 115.906 28.6875 115.906 27.0625C115.906 21.7708 114.677 19.125 112.219 19.125C110.656 19.125 109.365 19.8333 108.344 21.25C107.323 22.6667 106.812 24.7917 106.812 27.625C106.812 29.25 106.948 30.6458 107.219 31.8125C107.51 32.9792 107.823 33.7917 108.156 34.25C108.51 34.6875 108.823 35.0521 109.094 35.3438C109.385 35.6354 109.531 35.8229 109.531 35.9062C109.531 35.9896 109.438 36.1146 109.25 36.2812C109.062 36.4479 108.833 36.7188 108.562 37.0938C108.312 37.4479 108.062 37.8958 107.812 38.4375C107.188 39.8333 106.875 41.8438 106.875 44.4688C106.875 47.0729 107.156 49.125 107.719 50.625C108.281 52.125 109.302 53.5521 110.781 54.9062C110.635 55.3229 110.271 55.7083 109.688 56.0625C109.125 56.4167 108.49 56.5938 107.781 56.5938C105.698 56.5938 103.74 55.4792 101.906 53.25C100.24 55.4792 98.5312 56.5938 96.7812 56.5938C95.9479 56.5938 95.2604 56.4688 94.7188 56.2188C94.0104 55.8854 93.5729 55.4479 93.4062 54.9062C94.8646 53.5521 95.8854 52.1146 96.4688 50.5938C97.0521 49.0729 97.3438 47.3229 97.3438 45.3438C97.3438 43.3438 97.2604 41.8646 97.0938 40.9062C96.9479 39.9271 96.7188 39.1458 96.4062 38.5625C96.1146 37.9792 95.8542 37.5417 95.625 37.25C95.4167 36.9375 95.1354 36.6458 94.7812 36.375C94.4271 36.1042 94.2396 35.9583 94.2188 35.9375C94.2188 35.875 94.3229 35.7708 94.5312 35.625C94.7604 35.4583 95.0208 35.2083 95.3125 34.875C95.625 34.5417 95.9375 34.1042 96.25 33.5625C96.9792 32.2708 97.3438 30.2604 97.3438 27.5312C97.3438 24.8021 97.0312 22.625 96.4062 21C95.7812 19.375 94.6562 17.8229 93.0312 16.3438C93.5729 15.2604 95.0104 14.7188 97.3438 14.7188C99.6979 14.7188 101.781 16.2812 103.594 19.4062ZM168.125 51.6562C167.542 53.7604 166.406 55.2292 164.719 56.0625C163.927 56.4583 163.125 56.7396 162.312 56.9062C161.5 57.0938 160.448 57.1875 159.156 57.1875C157.865 57.1875 156.51 56.9167 155.094 56.375C154.219 56.0417 153.438 55.6042 152.75 55.0625C152.083 54.5208 151.469 53.7708 150.906 52.8125C150.344 51.8333 149.948 50.7292 149.719 49.5C149.49 48.25 148.792 46.9167 147.625 45.5C147.25 45.0625 147.062 44.7917 147.062 44.6875C147.062 44.5833 147.427 44.1146 148.156 43.2812C148.906 42.4271 149.375 41.5625 149.562 40.6875C150.167 37.875 151.542 35.8958 153.688 34.75C154.625 34.2292 155.635 33.7917 156.719 33.4375C157.802 33.0833 158.844 32.7604 159.844 32.4688C160.865 32.1771 161.792 31.8333 162.625 31.4375C163.458 31.0208 164.125 30.4271 164.625 29.6562C165.125 28.8646 165.375 27.7188 165.375 26.2188C165.375 24.6979 165.323 23.2917 165.219 22C165.156 21.2083 165.042 20.6042 164.875 20.1875C164.729 19.7708 164.531 19.3646 164.281 18.9688C164.031 18.5729 163.708 18.3021 163.312 18.1562C162.917 17.9896 162.365 17.9062 161.656 17.9062C160.948 17.9062 160.333 18.2083 159.812 18.8125C159.292 19.4167 159.031 20.1771 159.031 21.0938C159.031 22.0104 159.344 23.125 159.969 24.4375C160.615 25.7292 161.49 26.5104 162.594 26.7812C162.031 28.1146 161.094 28.7812 159.781 28.7812C158.49 28.7812 157.292 28.3542 156.188 27.5C156.292 27.6042 156.062 28.1146 155.5 29.0312C155.25 29.4479 154.948 29.8646 154.594 30.2812C154.24 30.6979 153.781 31.0521 153.219 31.3438C152.656 31.6354 152.083 31.7812 151.5 31.7812C150.917 31.7812 150.5 31.625 150.25 31.3125C151.333 30.2292 151.875 29.2083 151.875 28.25C151.875 27.8958 151.729 27.1458 151.438 26C151.146 24.8333 151 23.9688 151 23.4062C151 20.8646 151.969 18.8125 153.906 17.25C154.76 16.5417 155.948 15.8229 157.469 15.0938C158.99 14.3646 160.74 14 162.719 14C171.031 14 175.188 18.5417 175.188 27.625C175.188 29.8125 175.604 31.7708 176.438 33.5C176.833 34.2917 177.708 35.0833 179.062 35.875C179.062 35.9583 178.938 36.0833 178.688 36.25C178.458 36.4167 178.167 36.6875 177.812 37.0625C177.458 37.4167 177.104 37.875 176.75 38.4375C176.396 39 176.094 39.8125 175.844 40.875C175.615 41.9375 175.5 43.5 175.5 45.5625C175.5 47.625 175.771 49.4375 176.312 51C176.854 52.5417 177.646 53.8646 178.688 54.9688C178.5 55.3229 178.104 55.6667 177.5 56C177.208 56.1458 176.792 56.2708 176.25 56.375C175.729 56.5 175.115 56.5625 174.406 56.5625C173.719 56.5625 173.021 56.3854 172.312 56.0312C170.542 55.1562 169.146 53.6979 168.125 51.6562ZM158.531 45.1875C158.531 49.875 159.521 52.2188 161.5 52.2188C162.333 52.2188 162.958 52.0625 163.375 51.75C163.625 51.5833 163.844 51.4167 164.031 51.25C164.219 51.0833 164.375 50.8229 164.5 50.4688C164.646 50.1146 164.823 49.6667 165.031 49.125C165.26 48.5833 165.375 46.8229 165.375 43.8438C165.375 43.8438 165.375 42.0417 165.375 38.4375C165.375 35.25 165.385 33.6562 165.406 33.6562C164.865 34.2188 164 34.9479 162.812 35.8438C161.625 36.7396 160.677 37.6458 159.969 38.5625C159.01 39.7917 158.531 41.7708 158.531 44.5V45.1875ZM191.031 53.25C189.365 55.4792 187.656 56.5938 185.906 56.5938C184.615 56.5938 183.781 56.4167 183.406 56.0625C182.906 55.5833 182.615 55.1979 182.531 54.9062C184.01 53.5521 185.031 52.125 185.594 50.625C186.177 49.1042 186.469 47.3438 186.469 45.3438C186.469 43.3438 186.385 41.8542 186.219 40.875C186.073 39.8958 185.844 39.1146 185.531 38.5312C185.24 37.9479 184.979 37.5104 184.75 37.2188C184.542 36.9062 184.26 36.625 183.906 36.375C183.573 36.1042 183.396 35.9583 183.375 35.9375C183.375 35.875 183.479 35.7604 183.688 35.5938C183.896 35.4062 184.156 35.1354 184.469 34.7812C184.781 34.4062 185.083 33.9375 185.375 33.375C186.104 32 186.469 29.9271 186.469 27.1562C186.469 24.3854 186.156 22.2396 185.531 20.7188C184.906 19.1771 183.781 17.7188 182.156 16.3438C182.698 15.2604 184.083 14.7188 186.312 14.7188C188.062 14.7188 189.854 15.8125 191.688 18C192.104 18.5 192.521 19.0938 192.938 19.7812C194.75 15.9271 197.771 14 202 14C206.25 14 209.24 15.8125 210.969 19.4375C212.01 17.5833 213.375 16.2188 215.062 15.3438C216.75 14.4479 218.427 14 220.094 14C221.76 14 223.24 14.2188 224.531 14.6562C225.823 15.0938 227 15.7812 228.062 16.7188C230.375 18.7396 231.531 21.9792 231.531 26.4375C231.531 30.9583 232.333 33.9792 233.938 35.5C234.125 35.6667 234.219 35.8021 234.219 35.9062C234.219 35.9896 234.125 36.1042 233.938 36.25C233.75 36.3958 233.521 36.6354 233.25 36.9688C233 37.3021 232.75 37.7396 232.5 38.2812C231.854 39.5938 231.531 41.6042 231.531 44.3125C231.531 47.0208 231.812 49.125 232.375 50.625C232.938 52.125 233.958 53.5521 235.438 54.9062C234.875 56.0312 233.698 56.5938 231.906 56.5938C230.115 56.5938 228.458 55.4792 226.938 53.25C225.875 54.6667 224.583 55.6667 223.062 56.25C222.438 56.4792 221.917 56.5938 221.5 56.5938C221.104 56.5938 220.823 56.5729 220.656 56.5312C220.51 56.4896 220.385 56.4375 220.281 56.375C220.198 56.3333 220.104 56.2604 220 56.1562C219.917 56.0521 219.854 55.9583 219.812 55.875C219.771 55.8125 219.719 55.7188 219.656 55.5938C219.615 55.4688 219.583 55.375 219.562 55.3125C219.562 55.2708 219.531 55.1354 219.469 54.9062C220.448 53.5521 221.135 52.0833 221.531 50.5C221.927 48.8958 222.125 47.0833 222.125 45.0625C222.125 43.0417 222.052 41.5417 221.906 40.5625C221.76 39.5625 221.583 38.8021 221.375 38.2812C221.167 37.7396 220.958 37.3021 220.75 36.9688C220.542 36.6354 220.365 36.3958 220.219 36.25C220.073 36.0833 220 35.9792 220 35.9375C220 35.8125 220.104 35.625 220.312 35.375C220.542 35.1042 220.792 34.7604 221.062 34.3438C221.771 33.2604 222.125 30.875 222.125 27.1875C222.125 21.7917 220.792 19.0938 218.125 19.0938C215.479 19.0938 213.927 21.4375 213.469 26.125C213.469 31.0208 214.292 34.1458 215.938 35.5C216.125 35.6667 216.219 35.8021 216.219 35.9062C216.219 35.9896 216.125 36.1042 215.938 36.25C215.75 36.3958 215.521 36.6354 215.25 36.9688C215 37.3021 214.75 37.7396 214.5 38.2812C213.854 39.5938 213.531 41.6146 213.531 44.3438C213.531 47.0521 213.802 49.1562 214.344 50.6562C214.906 52.1562 215.938 53.5729 217.438 54.9062C216.875 56.0312 215.75 56.5938 214.062 56.5938C212.938 56.5938 212.031 56.3125 211.344 55.75C210.24 54.8542 209.427 54.0208 208.906 53.25C207.24 55.4792 205.438 56.5938 203.5 56.5938C202.208 56.5938 201.427 56.0312 201.156 54.9062C202.365 53.5521 203.208 52.0833 203.688 50.5C204.188 48.8958 204.438 47.0938 204.438 45.0938C204.438 43.0729 204.344 41.5729 204.156 40.5938C203.969 39.5938 203.74 38.8333 203.469 38.3125C203.198 37.7708 202.927 37.3333 202.656 37C202.406 36.6458 202.188 36.3958 202 36.25C201.812 36.0833 201.719 35.9688 201.719 35.9062C201.719 35.8229 201.812 35.6979 202 35.5312C202.188 35.3646 202.406 35.125 202.656 34.8125C202.927 34.5 203.198 34.0729 203.469 33.5312C204.115 32.2396 204.438 30.125 204.438 27.1875C204.438 21.7917 203.052 19.0938 200.281 19.0938C198.844 19.0938 197.729 19.7708 196.938 21.125C196.167 22.4792 195.781 24.2917 195.781 26.5625C195.781 28.8333 195.885 30.5938 196.094 31.8438C196.323 33.0938 196.573 33.9271 196.844 34.3438C197.115 34.7604 197.354 35.1042 197.562 35.375C197.792 35.625 197.906 35.8021 197.906 35.9062C197.906 35.9896 197.833 36.1146 197.688 36.2812C197.542 36.4479 197.365 36.7083 197.156 37.0625C196.969 37.4167 196.771 37.875 196.562 38.4375C196.083 39.7917 195.844 41.7917 195.844 44.4375C195.844 47.0625 196.083 49.125 196.562 50.625C197.042 52.125 197.896 53.5521 199.125 54.9062C198.979 55.3646 198.688 55.7604 198.25 56.0938C197.833 56.4271 197.344 56.5938 196.781 56.5938C194.677 56.5938 192.76 55.4792 191.031 53.25ZM241.969 14.0625C243.781 14.0625 245.344 14.8646 246.656 16.4688C247.302 15.5104 248.333 14.7917 249.75 14.3125C250.271 14.1458 250.802 14.0625 251.344 14.0625C251.885 14.0625 252.354 14.125 252.75 14.25C253.146 14.3542 253.438 14.4896 253.625 14.6562C254.042 14.9896 254.281 15.3542 254.344 15.75C253.031 17.0208 252.125 18.3542 251.625 19.75C251.146 21.1458 250.906 22.9792 250.906 25.25C250.906 27.5208 251.01 29.3125 251.219 30.625C251.427 31.9167 251.688 32.8542 252 33.4375C252.312 34 252.615 34.4271 252.906 34.7188C253.219 35.0104 253.479 35.2396 253.688 35.4062C253.896 35.5521 254 35.7083 254 35.875C254 36.0208 253.896 36.1771 253.688 36.3438C253.479 36.4896 253.219 36.7292 252.906 37.0625C252.615 37.3958 252.312 37.8438 252 38.4062C251.271 39.7188 250.906 41.7917 250.906 44.625C250.906 47.4583 251.156 49.5938 251.656 51.0312C252.156 52.4479 253.052 53.7396 254.344 54.9062C254.344 55.5729 253.812 56.0729 252.75 56.4062C252.354 56.5312 251.802 56.5938 251.094 56.5938C250.385 56.5938 249.635 56.3854 248.844 55.9688C248.073 55.5729 247.521 55.1771 247.188 54.7812L246.656 54.1875C246.01 55.1458 244.979 55.8542 243.562 56.3125C243.042 56.5 242.438 56.5938 241.75 56.5938C241.062 56.5938 240.469 56.4479 239.969 56.1562C239.469 55.8854 239.177 55.6042 239.094 55.3125L238.969 54.9062C240.26 53.7396 241.156 52.4479 241.656 51.0312C242.156 49.5938 242.406 47.8542 242.406 45.8125C242.406 43.7708 242.302 42.1667 242.094 41C241.885 39.8333 241.625 38.9688 241.312 38.4062C241.021 37.8438 240.719 37.3958 240.406 37.0625C240.094 36.7292 239.833 36.4896 239.625 36.3438C239.417 36.1771 239.312 36.0208 239.312 35.875C239.312 35.7083 239.417 35.5521 239.625 35.4062C239.833 35.2396 240.094 35.0104 240.406 34.7188C240.719 34.4271 241.021 34 241.312 33.4375C242.042 32.0625 242.406 29.7917 242.406 26.625C242.406 23.4583 242.156 21.1771 241.656 19.7812C241.177 18.3854 240.281 17.0417 238.969 15.75C238.969 15.0833 239.5 14.5833 240.562 14.25C240.958 14.125 241.427 14.0625 241.969 14.0625ZM246.594 0.1875L253.156 5.9375L246.562 11.875L244.906 10.4375C243.802 9.5 242.708 8.55208 241.625 7.59375L239.969 6.15625C239.969 6.03125 241.021 5.01042 243.125 3.09375C245.25 1.15625 246.406 0.1875 246.594 0.1875Z" fill="#B77EE3"/>
</svg>
